# xmcd
# 
# Track frame offsets:
#     150
#     17175
#     34525
#     56150
#     76410
#     93495
#     126175
#     147225
#     166875
# 
# Disc length: 2502
# 
# Revision: 2
# Processed by: cddbd v1.5.2PL0 Copyright (c) Steve Scherf et al.
# Submitted via: BonkEnc v1.0.0
# 
DISCID=7209c409
DTITLE=신촌블루스 - 지구레코드
DYEAR=1988
DGENRE=Blues
TTITLE0=그대없는 거리
TTITLE1=오늘같은 밤
TTITLE2=나그네의 옛이야기
TTITLE3=한밤중에
TTITLE4=아쉬움
TTITLE5=봄비
TTITLE6=바닷가에 선들
TTITLE7=바람인가
TTITLE8=Overnight Blues
EXTD=YEAR: 1988
EXTT0=
EXTT1=
EXTT2=
EXTT3=
EXTT4=
EXTT5=
EXTT6=
EXTT7=
EXTT8=
PLAYORDER=
